<svg xmlns="http://www.w3.org/2000/svg" viewBox="0 0 192 192" role="img" aria-labelledby="title">
    <title id="title">Laya · Retro Speedlab</title>
    <defs>
        <linearGradient id="brass" x1="0" y1="0" x2="1" y2="1">
            <stop offset="0" stop-color="#fff0b8"/>
            <stop offset=".45" stop-color="#e6b85c"/>
            <stop offset="1" stop-color="#9f6829"/>
        </linearGradient>
        <radialGradient id="laya" cx="42%" cy="32%" r="72%">
            <stop offset="0" stop-color="#d7fff5"/>
            <stop offset=".32" stop-color="#61e7cf"/>
            <stop offset="1" stop-color="#0b9e8d"/>
        </radialGradient>
        <filter id="glow" x="-50%" y="-50%" width="200%" height="200%">
            <feGaussianBlur stdDeviation="4" result="blur"/>
            <feMerge>
                <feMergeNode in="blur"/>
                <feMergeNode in="SourceGraphic"/>
            </feMerge>
        </filter>
    </defs>
    <g fill="#a85d35">
        <path d="M78 0h36v10H78zM78 182h36v10H78zM0 78h10v36H0zM182 78h10v36h-10z"/>
        <path d="m27 18 14 14-8 8-14-14zM151 32l14-14 8 8-14 14zM19 166l14-14 8 8-14 14zM151 160l8-8 14 14-8 8z"/>
    </g>
    <path fill="#120f12" d="M96 4 151 22 188 68v56l-37 46-55 18-55-18-37-46V68l37-46Z"/>
    <path fill="none" stroke="url(#brass)" stroke-width="6"
          d="m96 10 51 17 34 44v50l-34 44-51 17-51-17-34-44V71l34-44Z"/>
    <path fill="none" stroke="#61e7cf" stroke-width="2" d="m96 20 45 15 30 40v42l-30 40-45 15-45-15-30-40V75l30-40Z"/>
    <circle cx="96" cy="96" r="58" fill="#1d171c" stroke="#6f5128" stroke-width="2"/>
    <g fill="#61e7cf">
        <path d="M51 48h7v7h-7zM134 39h9v9h-9zM149 132h7v7h-7zM39 126h9v9h-9z"/>
    </g>
    <path fill="url(#laya)" filter="url(#glow)"
          d="M101 38c-13 13-6 24-18 34-7 6-17 6-24 14-14 15-10 40 7 52 15 11 39 12 55 2 19-12 24-39 10-55-7-8-18-10-22-19-4-8 1-17 8-26-8 4-12 3-16-2Z"/>
    <path fill="none" stroke="#d7fff5" stroke-linecap="round" stroke-width="4" d="M83 76c-12 9-14 20-7 28"
          opacity=".72"/>
    <ellipse cx="82" cy="111" rx="5" ry="8" fill="#120f12"/>
    <ellipse cx="108" cy="111" rx="5" ry="8" fill="#120f12"/>
    <path fill="none" stroke="#120f12" stroke-linecap="round" stroke-width="4" d="M88 126c5 4 11 4 16 0"/>
    <g fill="#d7fff5">
        <path d="M57 104h6v6h-6zM128 93h5v5h-5zM121 128h7v7h-7zM70 137h5v5h-5z"/>
    </g>
</svg>
